<svg width="326" height="326" viewBox="0 0 326 326" fill="none" xmlns="http://www.w3.org/2000/svg">
<path d="M190.167 13.5833C190.167 47.1205 179.938 67.9166 129.042 67.9166H40.75C18.2832 67.9166 0 86.1998 0 108.667V149.417C0 171.883 18.2832 190.167 40.75 190.167H129.042C179.938 190.167 190.167 210.963 190.167 244.5H217.333V13.5833H190.167ZM293.889 206.562L274.682 187.355C290.249 171.775 298.833 151.074 298.833 129.042C298.833 107.009 290.249 86.3084 274.682 70.7283L293.889 51.5215C314.59 72.2225 326 99.7559 326 129.042C326 158.327 314.59 185.861 293.889 206.562ZM294.174 205.882L274.967 186.676C306.739 154.904 306.739 103.192 274.967 71.4211L294.174 52.2143C336.541 94.5807 336.541 163.516 294.174 205.882ZM255.842 167.564L236.635 148.357C247.271 137.708 247.271 120.389 236.635 109.74L255.842 90.5328C277.073 111.764 277.073 146.32 255.842 167.564ZM125.918 258.328C137.273 282.751 117.143 313.272 90.139 312.417H72.6708L30.0056 216.247C33.5373 216.817 37.0825 217.333 40.7636 217.333H108.843L125.918 258.328Z" fill="white"/>
</svg>
