<svg width="450" height="450" viewBox="0 0 450 450" fill="none" xmlns="http://www.w3.org/2000/svg">
<g clip-path="url(#clip0_31_68)">
<path d="M422.438 46.875L147 1.5H144C135 1.5 127.688 8.25 127.688 17.8125V39.375L378.563 80.4375C396.375 83.4375 409.875 99 409.875 117.75V333.187L430.687 336.937H433.687C442.687 336.937 450 330.187 450 320.625V78.9375C449.25 62.625 438 49.125 422.438 46.875Z" fill="white"/>
<path d="M359.625 103.688L83.4375 58.125H80.4375C71.4375 58.125 64.125 64.875 64.125 74.4375V96.75L312.75 137.813C330.563 140.813 344.063 156.375 344.063 175.125V391.125L364.875 394.875H367.875C376.875 394.875 384.187 388.125 384.187 378.563V132.75C384.187 118.5 373.688 105.938 359.625 103.688Z" fill="white"/>
<path d="M294.75 158.063L19.3124 112.5H16.3124C7.31238 112.5 -0.00012207 119.25 -0.00012207 128.812V379.125C-0.00012207 390.375 8.24988 399.938 19.3124 401.438L301.5 448.313H304.5C313.5 448.313 320.812 441.563 320.812 432V188.625C320.062 173.625 309.562 161.063 294.75 158.063ZM124.5 330.188C124.5 335.438 117.75 337.688 114 333.938L46.6874 272.063C42.9374 269.063 42.9374 263.063 46.6874 261.563L114 222.75C118.5 220.5 124.5 224.25 124.5 230.25V330.188ZM265.5 307.875L198.375 348.188C193.875 351.188 187.875 346.688 187.875 340.688V240C187.875 234.75 193.875 232.5 198.375 236.25L265.687 296.625C269.25 300.375 269.25 305.625 265.687 307.875H265.5Z" fill="white"/>
</g>
<defs>
<clipPath id="clip0_31_68">
<rect width="450" height="450" fill="white"/>
</clipPath>
</defs>
</svg>
