<svg width="450" height="450" viewBox="0 0 450 450" fill="none" xmlns="http://www.w3.org/2000/svg">
<g clip-path="url(#clip0_31_66)">
<path d="M213.974 236.025C203.793 225.806 188.962 222.431 175.312 227.044C174.749 227.25 174.168 227.456 173.624 227.719L10.9866 301.688C4.40532 304.669 0.130322 311.175 -0.000927934 318.413C-0.132178 325.65 3.89907 332.288 10.3678 335.531L62.0991 361.388L5.49282 417.994C-1.83843 425.325 -1.83843 437.175 5.49282 444.506C9.14907 448.163 13.9491 450 18.7491 450C23.5491 450 28.3491 448.163 32.0053 444.506L88.6116 387.9L114.468 439.631C117.655 445.988 124.162 450 131.249 450H131.605C138.843 449.869 145.33 445.594 148.33 439.012L222.955 274.669C227.624 261.019 224.193 246.206 213.974 236.006V236.025ZM130.443 387.731L110.53 347.869C108.712 344.25 105.768 341.288 102.149 339.488L62.2866 319.575L187.293 262.744L130.462 387.75L130.443 387.731ZM449.999 225C449.999 100.931 349.068 0 224.999 0C100.93 0 -0.000927934 100.931 -0.000927934 225C-0.000927934 231.881 0.317822 238.687 0.917822 245.419C1.83657 255.731 10.7803 263.494 21.2616 262.425C31.5741 261.506 39.1866 252.413 38.2678 242.081C37.7803 236.456 37.4991 230.756 37.4991 225C37.4991 205.35 40.5741 186.431 46.1991 168.619C46.4428 168.619 46.6303 168.75 46.8741 168.75H110.605C109.312 173.775 108.055 178.837 107.08 183.994C105.13 194.156 111.824 203.963 122.005 205.913C132.112 207.788 141.993 201.15 143.924 190.987C145.368 183.412 147.355 176.006 149.587 168.731H300.505C305.962 186.581 309.374 205.462 309.374 224.981C309.374 244.5 305.999 263.362 300.524 281.231H271.874C261.505 281.231 253.124 289.612 253.124 299.981C253.124 310.35 261.505 318.731 271.874 318.731H285.412C262.668 364.931 230.305 399.694 217.78 412.163C214.48 412.031 211.162 412.013 207.918 411.713C197.399 410.794 188.493 418.425 187.574 428.719C186.655 439.05 194.268 448.144 204.58 449.063C211.293 449.663 218.118 449.981 224.999 449.981C349.049 449.981 449.98 349.05 449.98 224.981L449.999 225ZM387.13 131.25H326.662C311.905 96.0938 291.599 66.0938 273.955 44.2125C322.124 57.2813 362.605 89.025 387.13 131.25ZM62.8678 131.25C87.4116 88.9875 127.912 57.2438 176.137 44.1938C158.493 66.0938 138.037 95.9812 123.243 131.25H62.8678ZM164.718 131.25C183.862 92.4 209.774 61.4063 225.018 45.2063C240.299 61.4063 266.38 92.2688 285.524 131.25H164.737H164.718ZM339.299 168.75H403.105C403.349 168.75 403.537 168.619 403.78 168.619C409.405 186.431 412.48 205.369 412.48 225C412.48 244.631 409.405 263.569 403.78 281.381C403.537 281.381 403.349 281.25 403.105 281.25H339.299C343.912 263.325 346.855 244.538 346.855 225C346.855 205.462 343.912 186.675 339.299 168.75ZM273.955 405.788C291.58 383.906 311.905 353.906 326.662 318.75H387.13C362.605 360.994 322.143 392.719 273.974 405.788H273.955Z" fill="white"/>
</g>
<defs>
<clipPath id="clip0_31_66">
<rect width="450" height="450" fill="white"/>
</clipPath>
</defs>
</svg>
